<mxfile host="app.diagrams.net" modified="2024-10-14T08:36:34.385Z" agent="Mozilla/5.0 (Macintosh; Intel Mac OS X 10_15_7) AppleWebKit/537.36 (KHTML, like Gecko) Chrome/129.0.0.0 Safari/537.36" version="24.7.2" etag="M_d5MSJnhWVjx228p6mx" type="github">
  <diagram name="第 1 页" id="KoAYILoCSMbedghGgefM">
    <mxGraphModel>
      <root>
        <mxCell id="0" />
        <mxCell id="1" parent="0" />
      </root>
    </mxGraphModel>
  </diagram>
</mxfile>
